<svg width="1626" height="359" viewBox="0 0 1626 359" fill="none" xmlns="http://www.w3.org/2000/svg">
<g clip-path="url(#clip0_316_260)">
<path d="M545.881 248.119V248.09C546.317 246.071 546.956 243.268 546.956 235.774C546.956 231.184 546.738 224.909 546.099 216.05C546.055 215.265 541.582 138.606 541.582 138.606C541.582 138.606 505.648 245.883 502.627 254.917C502.511 255.28 502.163 255.527 501.785 255.527H492.402C492.025 255.527 491.691 255.28 491.56 254.931C488.481 245.926 451.749 138.504 451.749 138.504L448.408 215.846C447.972 225.592 447.769 232.317 447.769 236.805C447.769 245.534 448.408 247.001 448.626 248.119C448.626 248.119 448.626 248.119 448.626 248.134C448.655 248.337 449.381 252.506 449.73 254.481C449.773 254.742 449.701 255.004 449.541 255.207C449.367 255.411 449.12 255.527 448.858 255.527H431.255C430.979 255.527 430.732 255.396 430.558 255.193C430.383 254.975 430.325 254.699 430.398 254.437C430.877 252.477 431.865 248.526 431.952 248.163C431.952 248.148 431.952 248.119 431.966 248.105C433.579 243.05 433.782 233.755 434.857 214.278C434.857 214.278 438.807 141.946 438.836 141.307C439.054 136.485 439.272 132.346 439.272 128.874C439.272 122.237 438.197 111.285 437.442 104.067C437.413 103.82 437.5 103.573 437.66 103.384C437.834 103.195 438.067 103.094 438.314 103.094H473.157C473.535 103.094 473.884 103.341 474 103.704C476.789 112.157 507.682 205.883 507.682 205.883C507.682 205.883 538.081 112.186 540.826 103.704C540.943 103.341 541.291 103.094 541.669 103.094H574.029C574.276 103.094 574.523 103.195 574.683 103.384C574.857 103.573 574.93 103.82 574.9 104.067C574.073 111.46 573.303 121.002 573.608 125.824C573.637 126.492 578.096 212.723 578.125 213.261C579.418 235.556 578.778 242.847 580.594 248.105C580.594 248.105 580.594 248.105 580.594 248.119C580.652 248.294 581.945 252.317 582.584 254.35C582.671 254.626 582.627 254.917 582.453 255.149C582.279 255.381 582.017 255.512 581.741 255.512H545.605C545.343 255.512 545.096 255.396 544.922 255.193C544.748 254.989 544.69 254.728 544.733 254.466C545.082 252.506 545.794 248.41 545.837 248.119H545.881Z" fill="#0C332A"/>
<path d="M685.884 252.912C685.869 252.839 685.855 252.766 685.855 252.694C685.724 250.341 682.311 240.639 682.093 224.458V193.304C682.093 157.095 663.589 141.074 633.466 141.074C617.692 141.074 605.23 146.201 602.296 148.017C602.282 148.017 602.267 148.031 602.253 148.046C602.035 148.191 600.466 149.31 599.682 149.861C599.421 150.05 599.275 150.355 599.319 150.675C599.638 153.798 601.352 170.254 602.02 176.644C602.064 177.022 602.325 177.327 602.703 177.414C603.066 177.501 603.444 177.341 603.647 177.036C607.467 171.183 619.028 155.54 632.841 155.54C644.46 155.54 652.42 162.265 652.42 186.143V192.2C652.42 192.432 652.333 192.665 652.158 192.824C651.999 192.984 651.766 193.086 651.534 193.086H647.365C610.139 193.086 592.289 203.848 592.289 226.826C592.289 247 605.84 256.761 626.61 256.761C642.848 256.761 650.706 250.486 654.903 240.726C658.447 251.372 665.768 255.526 676.951 255.526H685.463C685.739 255.526 686 255.395 686.174 255.177C686.349 254.96 686.392 254.669 686.32 254.408C686.16 253.827 685.971 253.188 685.913 252.941L685.884 252.912ZM652.391 204.487V216.833C652.391 227.712 648.411 242.73 634.86 242.73C627.438 242.73 622.064 237.908 622.064 225.127C622.064 210.777 629.486 203.601 647.133 203.601H651.519C651.752 203.601 651.984 203.689 652.144 203.863C652.304 204.023 652.405 204.255 652.405 204.487H652.391Z" fill="#0C332A"/>
<path d="M876.066 252.917C876.052 252.845 876.037 252.772 876.037 252.7C875.921 250.347 872.493 240.644 872.276 224.464V193.295C872.276 157.086 853.772 141.065 823.648 141.065C807.875 141.065 795.413 146.193 792.479 148.008C792.464 148.008 792.45 148.023 792.435 148.037C792.217 148.182 790.649 149.301 789.864 149.853C789.603 150.041 789.458 150.346 789.501 150.666C789.821 153.789 791.535 170.245 792.188 176.636C792.232 177.013 792.493 177.318 792.871 177.405C793.234 177.492 793.612 177.333 793.815 177.028C797.635 171.174 809.196 155.532 823.009 155.532C834.629 155.532 842.588 162.256 842.588 186.134V192.191C842.588 192.424 842.501 192.656 842.326 192.816C842.167 192.975 841.934 193.077 841.702 193.077H837.533C800.308 193.077 782.457 203.84 782.457 226.817C782.457 246.991 796.008 256.752 816.778 256.752C833.016 256.752 840.874 250.477 845.072 240.717C848.615 251.363 855.936 255.517 867.119 255.517H875.631C875.907 255.517 876.168 255.386 876.342 255.169C876.517 254.951 876.56 254.66 876.488 254.399C876.328 253.818 876.139 253.179 876.081 252.932L876.066 252.917ZM842.588 204.493V216.839C842.588 227.718 838.608 242.736 825.057 242.736C817.635 242.736 812.261 237.914 812.261 225.132C812.261 210.782 819.683 203.607 837.33 203.607H841.716C841.949 203.607 842.181 203.694 842.341 203.869C842.501 204.028 842.602 204.261 842.602 204.493H842.588Z" fill="#0C332A"/>
<path d="M781.552 143.413C781.857 143.413 782.148 143.573 782.307 143.834C782.467 144.096 782.482 144.415 782.351 144.691C776.454 156.587 765.474 181.104 760.288 193.842L736.294 253.028L736.193 253.246L725.764 279.927C716.193 304.474 711.559 307.843 698.56 307.843C698.458 307.843 694.624 307.901 692.285 307.93C691.951 307.93 691.632 307.741 691.487 307.451C691.327 307.146 691.356 306.783 691.559 306.521C694.508 302.527 702.612 291.605 702.859 291.271C702.859 291.271 702.859 291.271 702.859 291.256C709.482 281.917 720.434 264.633 728.059 249.368C728.175 249.136 728.175 248.874 728.088 248.642C726.258 244.125 708.335 199.869 708.117 199.361C703.818 188.439 693.593 160.813 686.505 144.677C686.389 144.401 686.403 144.081 686.577 143.834C686.737 143.587 687.013 143.428 687.318 143.428H722.583C723.004 143.428 723.353 143.718 723.44 144.125C726.316 157.066 732.707 180.581 735.771 189.6L743.193 211.678C743.193 211.678 745.996 204.328 746.098 204.067C746.243 203.718 751.661 190.196 751.792 189.847C756.541 177.429 763.339 155.555 765.938 144.139C766.026 143.733 766.389 143.442 766.795 143.442H781.538L781.552 143.413Z" fill="#0C332A"/>
<path d="M961.913 191.815H963.641C1009.02 191.815 1025.04 175.315 1025.04 147.153C1025.04 118.99 1008.07 103.202 963.641 103.202H924.905C924.687 103.202 924.483 103.289 924.338 103.464C924.193 103.623 924.135 103.841 924.164 104.059C925.427 113.863 926.88 128.649 926.88 140.21V216.565C926.88 235.141 926.183 243.159 924.89 248.111C924.89 248.141 924.89 248.17 924.876 248.184C924.774 248.504 924.077 250.828 923.481 252.788C923.278 253.442 923.409 254.154 923.815 254.691C924.222 255.243 924.861 255.562 925.544 255.562H961.012C961.709 255.562 962.363 255.228 962.755 254.662C963.162 254.096 963.278 253.384 963.046 252.716C962.436 250.886 961.724 248.765 961.55 248.242C961.521 248.17 961.506 248.082 961.491 248.01C960.446 243.057 959.748 235.025 959.748 216.55V193.965C959.748 193.398 959.981 192.846 960.373 192.44C960.765 192.033 961.332 191.815 961.898 191.815H961.913ZM959.763 178.104V142.2C959.763 127.966 960.141 119.862 960.794 114.604C960.94 113.543 961.855 112.745 962.929 112.745C963.205 112.745 963.409 112.745 963.409 112.745C981.433 112.745 990.162 124.64 990.162 147.385C990.162 168.591 982.261 180.268 963.656 180.268H961.927C961.361 180.268 960.809 180.036 960.402 179.644C959.995 179.237 959.778 178.685 959.778 178.119L959.763 178.104Z" fill="#0C332A"/>
<path fill-rule="evenodd" clip-rule="evenodd" d="M1109.04 170.592C1108.9 171.376 1108.32 172.015 1107.55 172.248C1106.78 172.48 1105.95 172.262 1105.38 171.696C1102.56 168.965 1098.09 166.235 1091.74 166.235C1078.31 166.235 1071.35 183.562 1071.35 212.785V227.397C1071.35 235.4 1071.82 239.641 1073.36 247.644C1073.36 247.644 1073.36 247.673 1073.36 247.687C1073.41 247.949 1073.99 250.766 1074.46 252.96C1074.59 253.599 1074.43 254.252 1074.02 254.761C1073.62 255.269 1073.01 255.559 1072.35 255.559H1039.8C1039.18 255.559 1038.58 255.284 1038.16 254.804C1037.76 254.325 1037.57 253.7 1037.67 253.076C1037.99 250.897 1038.42 248.021 1038.47 247.687C1038.47 247.658 1038.47 247.644 1038.47 247.615C1040.11 238.566 1040.34 233.962 1040.34 223.374V179.466C1040.34 179.466 1040.34 179.408 1040.34 179.379C1039.86 167.295 1037.99 156.155 1035.77 149.43C1035.77 149.387 1035.74 149.343 1035.72 149.314C1035.61 149.023 1035.1 147.731 1034.58 146.438C1034.31 145.77 1034.39 145.015 1034.79 144.434C1035.2 143.838 1035.87 143.49 1036.58 143.49H1046.83C1065.22 143.49 1070.87 149.387 1071.35 174.252C1076.54 152.103 1087.62 141.137 1102.81 141.137C1105.99 141.137 1108.59 141.485 1110.83 143.025C1112.72 144.318 1113.41 145.61 1112.95 148.66C1112.95 148.689 1110.73 161.485 1109.03 170.563L1109.04 170.592Z" fill="#0C332A"/>
<path d="M1166.9 141.11C1199.18 141.11 1219.33 162.766 1219.33 199.6C1219.33 236.434 1199.18 257.668 1166.9 257.668C1134.61 257.668 1115.34 236.651 1115.34 199.6C1115.34 162.548 1135.26 141.11 1166.9 141.11ZM1148.48 199.818C1148.48 235.78 1155.19 246.194 1166.9 246.194C1179.66 246.194 1186.17 235.795 1186.17 199.818C1186.17 163.841 1179.66 152.585 1166.9 152.585C1155.19 152.585 1148.48 163.855 1148.48 199.818Z" fill="#0C332A"/>
<path d="M1295.21 247.411C1295.64 248.428 1295.22 249.619 1294.25 250.142C1287.33 253.758 1277.68 256.852 1270.63 256.852C1253.07 256.852 1236.93 249.895 1236.93 220.556V158.261C1236.93 157.07 1235.98 156.111 1234.78 156.111H1226.72C1225.53 156.111 1224.57 155.138 1224.57 153.962V145.552C1224.57 144.419 1225.46 143.475 1226.59 143.402C1247.67 142.052 1258.55 129.372 1259.51 115.399C1259.56 114.267 1260.49 113.366 1261.64 113.366C1262.93 113.352 1264.59 113.352 1265.91 113.352C1266.48 113.352 1267.03 113.584 1267.44 113.976C1267.84 114.383 1268.06 114.935 1268.06 115.501V141.354C1268.06 141.921 1268.29 142.473 1268.68 142.88C1269.09 143.286 1269.64 143.504 1270.21 143.504H1288.87C1289.44 143.504 1289.99 143.736 1290.4 144.129C1290.81 144.535 1291.02 145.087 1291.02 145.654V153.947C1291.02 154.514 1290.79 155.065 1290.4 155.472C1289.99 155.879 1289.44 156.097 1288.87 156.097H1270.21C1269.64 156.097 1269.09 156.329 1268.68 156.721C1268.28 157.128 1268.06 157.68 1268.06 158.246V220.541C1268.06 240.105 1274.54 244.463 1279.84 244.463C1283.34 244.463 1288.92 242.618 1292.23 240.861C1292.3 240.817 1292.37 240.803 1292.45 240.803C1292.45 240.803 1294.19 244.928 1295.22 247.382L1295.21 247.411Z" fill="#0C332A"/>
<path d="M1385.41 237.603C1384.82 236.6 1383.54 236.252 1382.52 236.804C1373.18 241.858 1368.58 244.72 1359.94 244.72C1340.5 244.72 1330.73 235.192 1329.06 204.952C1329.02 204.356 1329.23 203.775 1329.64 203.34C1330.05 202.904 1330.61 202.657 1331.21 202.657C1341.56 202.657 1384.19 202.657 1384.22 202.657C1388.7 202.657 1389.64 198.765 1389.64 191.11C1389.64 163.892 1378.8 141.146 1345.46 141.146C1312.11 141.146 1295.61 166.477 1295.61 199.011C1295.61 238.14 1320.94 256.993 1351.7 256.993C1365.44 256.993 1377.05 253.173 1387.52 244.807C1388.35 244.139 1388.57 242.962 1388.03 242.033C1387.27 240.754 1386.21 238.953 1385.43 237.617L1385.41 237.603ZM1345.44 151.749C1354.04 151.749 1359.11 161.887 1359.11 179.912C1359.11 188.51 1357.7 190.515 1347.08 190.515H1328.7C1329.41 159.52 1338.01 151.749 1345.43 151.749" fill="#0C332A"/>
<path d="M1608.01 237.603C1607.42 236.6 1606.14 236.252 1605.12 236.804C1595.79 241.858 1591.18 244.72 1582.54 244.72C1563.11 244.72 1553.33 235.192 1551.66 204.952C1551.62 204.356 1551.83 203.775 1552.24 203.34C1552.65 202.904 1553.21 202.657 1553.81 202.657C1564.17 202.657 1606.79 202.657 1606.82 202.657C1611.31 202.657 1612.24 198.765 1612.24 191.11C1612.24 163.892 1601.41 141.146 1568.06 141.146C1534.71 141.146 1518.21 166.477 1518.21 199.011C1518.21 238.14 1543.54 256.993 1574.3 256.993C1588.04 256.993 1599.65 253.173 1610.12 244.807C1610.95 244.139 1611.17 242.962 1610.63 242.033C1609.87 240.754 1608.81 238.953 1608.01 237.617V237.603ZM1568.06 151.749C1576.66 151.749 1581.73 161.887 1581.73 179.912C1581.73 188.51 1580.32 190.515 1569.7 190.515H1551.31C1552.02 159.52 1560.62 151.749 1568.04 151.749" fill="#0C332A"/>
<path d="M1505.42 143.499H1494.87C1484.97 143.499 1478.61 146.099 1474.73 152.577C1470.01 145.867 1461.06 141.146 1450.21 141.146C1421.93 141.146 1400.84 162.948 1400.84 203.717C1400.84 244.487 1421.24 256.978 1442.09 256.978C1452.7 256.978 1458.94 253.797 1464.95 247.9C1465.52 247.363 1466.09 246.797 1466.65 246.201C1467.25 245.562 1468.19 245.344 1469.01 245.664C1469.82 245.983 1470.37 246.782 1470.37 247.668C1470.37 249.716 1470.37 251.43 1470.37 251.43C1470.37 279.128 1459.17 293.028 1441.61 293.028C1429.69 293.028 1420.63 285.591 1417.65 270.718C1417.45 269.716 1416.57 269.004 1415.56 269.004C1414.42 268.99 1412.96 268.99 1411.82 268.99C1410.79 268.99 1409.89 269.73 1409.7 270.747C1408.66 276.339 1405.43 293.623 1404.43 298.968C1404.26 299.912 1404.72 300.871 1405.59 301.292C1415.34 305.983 1429.24 309.396 1440.9 309.396C1481.67 309.396 1501.58 285.01 1501.58 240.348V180.275C1501.58 180.275 1501.58 180.246 1501.58 180.231C1501.82 167.77 1503.59 156.121 1506.17 149.411C1506.17 149.396 1506.19 149.367 1506.2 149.353C1506.29 149.135 1506.84 147.813 1507.41 146.477C1507.68 145.809 1507.61 145.054 1507.22 144.444C1506.83 143.848 1506.15 143.485 1505.42 143.485V143.499ZM1470.24 200.842C1470.24 200.842 1470.24 200.885 1470.24 200.914C1469.3 228.699 1463.28 241.176 1450.21 241.176C1440.9 241.176 1434.08 232.577 1434.08 203.238C1434.08 170.123 1442.44 155.395 1454.22 155.395C1461.82 155.395 1467.18 158.663 1470.05 165.083C1470.17 165.359 1470.24 165.664 1470.24 165.954C1470.24 169.905 1470.24 199.636 1470.24 200.842Z" fill="#0C332A"/>
<path d="M1614.25 135.289V138.02H1616.36C1616.88 138.02 1617.27 137.903 1617.56 137.657C1617.84 137.41 1617.98 137.09 1617.98 136.683C1617.98 136.277 1617.85 135.943 1617.59 135.681C1617.33 135.42 1616.94 135.304 1616.43 135.304H1614.27L1614.25 135.289ZM1612.26 143.495V133.691H1616.76C1617.71 133.691 1618.46 133.938 1619.04 134.447C1619.63 134.955 1619.92 135.609 1619.92 136.422C1619.92 137.671 1619.32 138.47 1618.11 138.789V138.833C1618.58 138.964 1618.93 139.182 1619.16 139.487C1619.39 139.777 1619.54 140.227 1619.61 140.808C1619.63 141.026 1619.65 141.288 1619.67 141.578C1619.7 141.869 1619.71 142.116 1619.73 142.29C1619.73 142.464 1619.76 142.638 1619.79 142.813C1619.81 142.987 1619.84 143.118 1619.89 143.219C1619.93 143.321 1619.97 143.379 1620.05 143.408V143.51H1618.14C1618.14 143.51 1618.07 143.452 1618.04 143.408C1618.01 143.365 1618 143.292 1617.97 143.19C1617.96 143.103 1617.94 143.002 1617.93 142.914C1617.91 142.827 1617.9 142.696 1617.88 142.551C1617.87 142.406 1617.85 142.261 1617.85 142.159C1617.85 142.043 1617.84 141.898 1617.82 141.709C1617.82 141.52 1617.8 141.375 1617.8 141.259C1617.71 140.14 1617.07 139.588 1615.88 139.588H1614.28V143.524H1612.29L1612.26 143.495Z" fill="#0C332A"/>
<path fill-rule="evenodd" clip-rule="evenodd" d="M1615.97 130.65C1611.41 130.65 1607.7 134.354 1607.7 138.914C1607.7 143.475 1611.41 147.179 1615.97 147.179C1620.53 147.179 1624.23 143.475 1624.23 138.914C1624.23 134.354 1620.53 130.65 1615.97 130.65ZM1615.97 128.893C1621.5 128.893 1625.99 133.381 1625.99 138.914C1625.99 144.448 1621.5 148.936 1615.97 148.936C1610.43 148.936 1605.95 144.448 1605.95 138.914C1605.95 133.381 1610.43 128.893 1615.97 128.893Z" fill="#0C332A"/>
<path fill-rule="evenodd" clip-rule="evenodd" d="M207.554 86.4591L180.365 106.953C178.825 108.115 176.69 108.086 175.18 106.88L148.571 85.6458C141.019 79.6182 136.661 70.4242 136.792 60.7656L137.271 26.096C137.286 24.6145 138.085 23.2492 139.377 22.4939C151.592 19.7633 162.849 13.8229 171.999 5.28257L177.053 0.562162C178.404 -0.222153 180.089 -0.207628 181.411 0.620259L186.334 5.47139C195.238 14.2586 206.334 20.5041 218.477 23.5687C219.74 24.353 220.496 25.7328 220.481 27.2289L220.002 61.8985C219.871 71.5717 215.281 80.6349 207.554 86.4591Z" fill="#43C970"/>
<path fill-rule="evenodd" clip-rule="evenodd" d="M264.894 133.637L231.183 128.917C229.266 128.655 227.784 127.116 227.567 125.199L223.761 91.3714C222.686 81.7563 226.1 72.1993 233.028 65.4455L257.879 41.2624C258.939 40.2312 260.479 39.8245 261.917 40.2022C272.49 46.9124 284.647 50.6742 297.153 51.0954L304.066 51.3278C305.577 51.7345 306.753 52.9255 307.102 54.4505L307.145 61.3641C307.233 73.8841 310.66 86.1426 317.08 96.8907C317.414 98.3431 316.978 99.8536 315.918 100.899L291.067 125.082C284.139 131.822 274.48 134.988 264.894 133.637Z" fill="#43C970"/>
<path fill-rule="evenodd" clip-rule="evenodd" d="M272.1 207.544L251.606 180.354C250.444 178.815 250.473 176.68 251.678 175.169L272.913 148.56C278.941 141.008 288.135 136.65 297.793 136.781L332.463 137.26C333.944 137.275 335.31 138.074 336.065 139.367C338.795 151.581 344.736 162.838 353.276 171.988L357.997 177.043C358.781 178.393 358.766 180.078 357.939 181.4L353.087 186.324C344.3 195.227 338.055 206.324 334.99 218.466C334.206 219.73 332.826 220.485 331.33 220.47L296.66 219.991C286.987 219.86 277.924 215.271 272.1 207.544Z" fill="#43C970"/>
<path fill-rule="evenodd" clip-rule="evenodd" d="M224.919 264.892L229.64 231.181C229.901 229.264 231.441 227.782 233.358 227.565L267.185 223.759C276.8 222.684 286.357 226.098 293.111 233.026L317.294 257.877C318.326 258.937 318.732 260.477 318.355 261.915C311.644 272.488 307.882 284.645 307.461 297.151L307.229 304.064C306.822 305.575 305.631 306.751 304.106 307.1L297.193 307.143C284.673 307.231 272.414 310.658 261.666 317.078C260.214 317.412 258.703 316.976 257.657 315.916L233.474 291.065C226.735 284.137 223.569 274.478 224.919 264.892Z" fill="#43C970"/>
<path fill-rule="evenodd" clip-rule="evenodd" d="M151.013 272.092L178.202 251.598C179.742 250.436 181.877 250.465 183.388 251.671L209.996 272.905C217.549 278.933 221.906 288.127 221.775 297.785L221.296 332.455C221.282 333.936 220.483 335.302 219.19 336.057C206.975 338.788 195.719 344.728 186.568 353.268L181.514 357.989C180.163 358.773 178.478 358.759 177.157 357.931L172.233 353.08C163.329 344.292 152.233 338.047 140.09 334.982C138.827 334.198 138.072 332.818 138.086 331.322L138.565 296.653C138.696 286.979 143.286 277.916 151.013 272.092Z" fill="#43C970"/>
<path fill-rule="evenodd" clip-rule="evenodd" d="M93.6673 224.918L127.378 229.638C129.296 229.899 130.777 231.439 130.995 233.356L134.8 267.183C135.875 276.798 132.462 286.355 125.534 293.109L100.683 317.292C99.6223 318.324 98.0827 318.73 96.6448 318.353C86.0711 311.642 73.9142 307.881 61.4087 307.459L54.4952 307.227C52.9846 306.82 51.8082 305.629 51.4596 304.104L51.416 297.191C51.3289 284.671 47.9011 272.412 41.4814 261.664C41.1473 260.212 41.583 258.701 42.6433 257.655L67.4944 233.472C74.4226 226.733 84.0812 223.567 93.6673 224.918Z" fill="#43C970"/>
<path fill-rule="evenodd" clip-rule="evenodd" d="M86.465 151.007L106.959 178.197C108.121 179.736 108.092 181.871 106.886 183.382L85.6516 209.99C79.624 217.543 70.4301 221.9 60.7714 221.77L26.1018 221.29C24.6203 221.276 23.255 220.477 22.4998 219.184C19.7692 206.969 13.8287 195.713 5.28843 186.563L0.568021 181.508C-0.216293 180.157 -0.201769 178.472 0.626119 177.151L5.47725 172.227C14.2645 163.324 20.5099 152.227 23.5746 140.085C24.3589 138.821 25.7387 138.066 27.2347 138.08L61.9043 138.56C71.5775 138.69 80.6407 143.28 86.465 151.007Z" fill="#43C970"/>
<path fill-rule="evenodd" clip-rule="evenodd" d="M133.64 93.6683L128.92 127.379C128.658 129.296 127.119 130.778 125.202 130.996L91.3743 134.801C81.7592 135.876 72.2022 132.463 65.4484 125.535L41.2654 100.684C40.2341 99.6233 39.8275 98.0837 40.2051 96.6458C46.9153 86.0721 50.6771 73.9152 51.0983 61.4097L51.3307 54.4961C51.7374 52.9856 52.9284 51.8091 54.4535 51.4606L61.3671 51.417C73.887 51.3298 86.1456 47.9021 96.8936 41.4823C98.346 41.1483 99.8566 41.584 100.902 42.6443L125.085 67.4954C131.825 74.4235 134.991 84.0822 133.64 93.6683Z" fill="#43C970"/>
</g>
<defs>
<clipPath id="clip0_316_260">
<rect width="1626" height="358.562" fill="white"/>
</clipPath>
</defs>
</svg>
