<svg width="1133" height="407" viewBox="0 0 1133 407" fill="none" xmlns="http://www.w3.org/2000/svg">
<g clip-path="url(#clip0_316_232)">
<path d="M545.842 151.851V151.822C546.278 149.803 546.917 147 546.917 139.506C546.917 134.917 546.699 128.643 546.06 119.783C546.016 118.999 541.543 42.3447 541.543 42.3447C541.543 42.3447 505.612 149.614 502.591 158.648C502.475 159.011 502.127 159.258 501.749 159.258H492.367C491.989 159.258 491.655 159.011 491.525 158.663C488.446 149.658 451.716 42.243 451.716 42.243L448.376 119.58C447.94 129.325 447.737 136.05 447.737 140.537C447.737 149.266 448.376 150.733 448.593 151.851C448.593 151.851 448.593 151.851 448.593 151.866C448.622 152.069 449.349 156.237 449.697 158.212C449.741 158.474 449.668 158.735 449.508 158.939C449.334 159.142 449.087 159.258 448.826 159.258H431.223C430.947 159.258 430.701 159.127 430.526 158.924C430.352 158.706 430.294 158.43 430.367 158.169C430.846 156.208 431.833 152.258 431.921 151.895C431.921 151.88 431.921 151.851 431.935 151.837C433.547 146.782 433.75 137.487 434.825 118.012C434.825 118.012 438.776 45.6851 438.805 45.046C439.022 40.2243 439.24 36.0851 439.24 32.614C439.24 25.9768 438.166 15.0262 437.41 7.80803C437.381 7.56113 437.468 7.31423 437.628 7.12543C437.802 6.93662 438.035 6.83496 438.282 6.83496H473.123C473.501 6.83496 473.85 7.08186 473.966 7.44494C476.754 15.8976 507.646 109.617 507.646 109.617C507.646 109.617 538.043 15.9266 540.788 7.44494C540.904 7.08186 541.253 6.83496 541.63 6.83496H573.988C574.235 6.83496 574.482 6.93662 574.642 7.12543C574.816 7.31423 574.889 7.56113 574.86 7.80803C574.032 15.2004 573.262 24.7423 573.567 29.5641C573.596 30.2322 578.055 116.458 578.084 116.995C579.377 139.288 578.738 146.579 580.553 151.837C580.553 151.837 580.553 151.837 580.553 151.851C580.611 152.025 581.904 156.048 582.543 158.082C582.63 158.358 582.586 158.648 582.412 158.88C582.238 159.113 581.976 159.244 581.7 159.244H545.566C545.305 159.244 545.058 159.127 544.884 158.924C544.709 158.721 544.651 158.459 544.695 158.198C545.043 156.237 545.755 152.142 545.799 151.851H545.842Z" fill="#0C332A"/>
<path d="M685.835 156.646C685.82 156.573 685.806 156.5 685.806 156.428C685.675 154.075 682.262 144.373 682.044 128.194V97.0416C682.044 60.8347 663.541 44.8154 633.42 44.8154C617.648 44.8154 605.186 49.9422 602.253 51.7576C602.238 51.7576 602.224 51.7721 602.209 51.7867C601.991 51.9319 600.423 53.0502 599.638 53.6021C599.377 53.7909 599.232 54.0959 599.275 54.4154C599.595 57.5379 601.309 73.9929 601.977 80.3832C602.02 80.7608 602.282 81.0658 602.659 81.153C603.022 81.2401 603.4 81.0804 603.603 80.7754C607.423 74.9224 618.984 59.2807 632.795 59.2807C644.414 59.2807 652.373 66.0051 652.373 89.8815V95.9378C652.373 96.1702 652.286 96.4025 652.112 96.5623C651.952 96.7221 651.719 96.8237 651.487 96.8237H647.319C610.095 96.8237 592.246 107.586 592.246 130.562C592.246 150.735 605.796 160.494 626.565 160.494C642.802 160.494 650.659 154.22 654.856 144.46C658.4 155.106 665.72 159.26 676.903 159.26H685.414C685.69 159.26 685.951 159.129 686.125 158.911C686.3 158.693 686.343 158.403 686.271 158.142C686.111 157.561 685.922 156.922 685.864 156.675L685.835 156.646ZM652.344 108.225V120.569C652.344 131.447 648.365 146.465 634.814 146.465C627.393 146.465 622.019 141.643 622.019 128.862C622.019 114.513 629.44 107.339 647.086 107.339H651.473C651.705 107.339 651.937 107.426 652.097 107.6C652.257 107.76 652.358 107.992 652.358 108.225H652.344Z" fill="#0C332A"/>
<path d="M876.006 156.64C875.991 156.567 875.977 156.494 875.977 156.422C875.86 154.069 872.433 144.367 872.215 128.188V97.0211C872.215 60.8142 853.712 44.7949 823.591 44.7949C807.818 44.7949 795.357 49.9217 792.424 51.7371C792.409 51.7371 792.395 51.7516 792.38 51.7662C792.162 51.9114 790.594 53.0297 789.809 53.5816C789.548 53.7704 789.403 54.0754 789.446 54.3949C789.766 57.5174 791.479 73.9724 792.133 80.3627C792.177 80.7403 792.438 81.0453 792.816 81.1325C793.179 81.2196 793.556 81.0598 793.76 80.7549C797.579 74.9019 809.14 59.2602 822.952 59.2602C834.57 59.2602 842.529 65.9846 842.529 89.861V95.9173C842.529 96.1497 842.442 96.382 842.268 96.5418C842.108 96.7016 841.876 96.8032 841.643 96.8032H837.475C800.252 96.8032 782.402 107.565 782.402 130.541C782.402 150.714 795.953 160.474 816.721 160.474C832.958 160.474 840.816 154.2 845.013 144.44C848.556 155.086 855.876 159.239 867.059 159.239H875.57C875.846 159.239 876.107 159.109 876.282 158.891C876.456 158.673 876.5 158.382 876.427 158.121C876.267 157.54 876.078 156.901 876.02 156.654L876.006 156.64ZM842.529 108.219V120.563C842.529 131.442 838.55 146.459 824.999 146.459C817.578 146.459 812.204 141.637 812.204 128.856C812.204 114.507 819.626 107.333 837.272 107.333H841.658C841.89 107.333 842.123 107.42 842.282 107.594C842.442 107.754 842.544 107.986 842.544 108.219H842.529Z" fill="#0C332A"/>
<path d="M781.499 47.1475C781.804 47.1475 782.094 47.3072 782.254 47.5686C782.414 47.8301 782.429 48.1496 782.298 48.4255C776.401 60.3202 765.422 84.8357 760.237 97.5727L736.244 156.756L736.142 156.973L725.715 183.653C716.144 208.197 711.511 211.567 698.512 211.567C698.411 211.567 694.576 211.625 692.238 211.654C691.904 211.654 691.585 211.465 691.439 211.175C691.28 210.87 691.309 210.507 691.512 210.245C694.46 206.251 702.564 195.33 702.811 194.996C702.811 194.996 702.811 194.996 702.811 194.981C709.434 185.643 720.385 168.36 728.009 153.096C728.126 152.863 728.126 152.602 728.038 152.369C726.208 147.853 708.287 103.6 708.069 103.092C703.77 92.17 693.545 64.5465 686.458 48.411C686.342 48.1351 686.356 47.8155 686.53 47.5686C686.69 47.3217 686.966 47.162 687.271 47.162H722.534C722.955 47.162 723.304 47.4524 723.391 47.8591C726.267 60.7995 732.657 84.3128 735.721 93.3319L743.143 115.407C743.143 115.407 745.946 108.059 746.047 107.797C746.193 107.449 751.61 93.9273 751.741 93.5788C756.49 81.1613 763.287 59.289 765.886 47.8736C765.973 47.467 766.337 47.1765 766.743 47.1765H781.485L781.499 47.1475Z" fill="#0C332A"/>
<path d="M468.887 289.267H470.615C515.986 289.267 532.005 272.769 532.005 244.608C532.005 216.447 515.042 200.66 470.615 200.66H431.881C431.663 200.66 431.46 200.747 431.315 200.922C431.169 201.081 431.111 201.299 431.14 201.517C432.404 211.32 433.856 226.105 433.856 237.666V314.015C433.856 332.591 433.159 340.608 431.867 345.56C431.867 345.589 431.867 345.618 431.852 345.633C431.75 345.952 431.053 348.276 430.458 350.237C430.254 350.89 430.385 351.602 430.792 352.139C431.198 352.691 431.838 353.011 432.52 353.011H467.986C468.683 353.011 469.337 352.677 469.729 352.11C470.136 351.544 470.252 350.832 470.02 350.164C469.41 348.334 468.698 346.214 468.524 345.691C468.495 345.618 468.48 345.531 468.466 345.458C467.42 340.506 466.723 332.475 466.723 314.001V291.417C466.723 290.85 466.955 290.299 467.347 289.892C467.739 289.485 468.306 289.267 468.872 289.267H468.887ZM466.723 275.557V239.655C466.723 225.423 467.1 217.319 467.754 212.061C467.899 211.001 468.814 210.202 469.889 210.202C470.165 210.202 470.368 210.202 470.368 210.202C488.392 210.202 497.12 222.097 497.12 244.84C497.12 266.044 489.219 277.721 470.615 277.721H468.887C468.32 277.721 467.768 277.489 467.362 277.097C466.955 276.69 466.737 276.138 466.737 275.572L466.723 275.557Z" fill="#0C332A"/>
<path fill-rule="evenodd" clip-rule="evenodd" d="M615.998 268.054C615.853 268.838 615.272 269.477 614.502 269.71C613.732 269.942 612.904 269.724 612.338 269.158C609.52 266.427 605.047 263.697 598.7 263.697C585.266 263.697 578.31 281.023 578.31 310.245V324.855C578.31 332.857 578.774 337.098 580.314 345.101C580.314 345.101 580.314 345.13 580.314 345.144C580.372 345.406 580.953 348.223 581.418 350.416C581.548 351.055 581.388 351.709 580.982 352.217C580.575 352.725 579.965 353.016 579.312 353.016H546.765C546.14 353.016 545.545 352.74 545.124 352.261C544.717 351.781 544.528 351.157 544.63 350.532C544.949 348.354 545.385 345.478 545.429 345.144C545.429 345.115 545.429 345.101 545.429 345.072C547.07 336.024 547.302 331.42 547.302 320.832V276.928C547.302 276.928 547.302 276.87 547.302 276.841C546.823 264.757 544.949 253.618 542.727 246.893C542.727 246.85 542.698 246.806 542.684 246.777C542.567 246.487 542.059 245.194 541.536 243.902C541.275 243.234 541.347 242.478 541.754 241.897C542.161 241.302 542.829 240.953 543.54 240.953H553.794C572.181 240.953 577.83 246.85 578.31 271.714C583.494 249.566 594.576 238.601 609.767 238.601C612.948 238.601 615.548 238.949 617.784 240.489C619.672 241.781 620.369 243.074 619.905 246.124C619.905 246.153 617.682 258.948 615.983 268.025L615.998 268.054Z" fill="#0C332A"/>
<path d="M673.843 238.57C706.129 238.57 726.273 260.225 726.273 297.056C726.273 333.887 706.129 355.121 673.843 355.121C641.558 355.121 622.285 334.105 622.285 297.056C622.285 260.007 642.211 238.57 673.843 238.57ZM655.428 297.274C655.428 333.234 662.137 343.647 673.843 343.647C686.609 343.647 693.116 333.248 693.116 297.274C693.116 261.299 686.609 250.044 673.843 250.044C662.137 250.044 655.428 261.314 655.428 297.274Z" fill="#0C332A"/>
<path d="M802.143 344.865C802.579 345.882 802.157 347.073 801.184 347.596C794.271 351.212 784.613 354.306 777.569 354.306C760.011 354.306 743.875 347.349 743.875 318.012V255.721C743.875 254.53 742.916 253.571 741.726 253.571H733.665C732.474 253.571 731.516 252.598 731.516 251.422V243.013C731.516 241.88 732.402 240.936 733.534 240.863C754.608 239.513 765.486 226.834 766.444 212.862C766.502 211.729 767.432 210.829 768.579 210.829C769.872 210.814 771.528 210.814 772.849 210.814C773.416 210.814 773.968 211.047 774.374 211.439C774.781 211.846 774.999 212.397 774.999 212.964V238.816C774.999 239.382 775.231 239.934 775.623 240.341C776.03 240.747 776.582 240.965 777.148 240.965H795.811C796.377 240.965 796.929 241.197 797.336 241.59C797.742 241.996 797.96 242.548 797.96 243.114V251.407C797.96 251.974 797.728 252.526 797.336 252.932C796.929 253.339 796.377 253.557 795.811 253.557H777.148C776.582 253.557 776.03 253.789 775.623 254.181C775.217 254.588 774.999 255.14 774.999 255.706V317.997C774.999 337.56 781.476 341.917 786.777 341.917C790.277 341.917 795.854 340.073 799.166 338.315C799.238 338.272 799.311 338.257 799.383 338.257C799.383 338.257 801.126 342.382 802.157 344.836L802.143 344.865Z" fill="#0C332A"/>
<path d="M892.349 335.059C891.753 334.057 890.475 333.709 889.459 334.26C880.12 339.315 875.516 342.176 866.875 342.176C847.443 342.176 837.668 332.648 835.998 302.411C835.955 301.815 836.172 301.234 836.579 300.799C836.986 300.363 837.552 300.116 838.148 300.116C848.503 300.116 891.129 300.116 891.158 300.116C895.631 300.116 896.575 296.224 896.575 288.57C896.575 261.353 885.741 238.609 852.395 238.609C819.049 238.609 802.551 263.938 802.551 296.471C802.551 335.597 827.88 354.448 858.64 354.448C872.379 354.448 883.983 350.628 894.455 342.263C895.283 341.595 895.5 340.418 894.963 339.489C894.208 338.211 893.148 336.41 892.363 335.074L892.349 335.059ZM852.395 249.211C860.993 249.211 866.062 259.349 866.062 277.372C866.062 285.97 864.653 287.974 854.036 287.974H835.65C836.361 256.981 844.959 249.211 852.381 249.211" fill="#0C332A"/>
<path d="M1114.95 335.059C1114.36 334.057 1113.08 333.709 1112.06 334.26C1102.72 339.315 1098.12 342.176 1089.48 342.176C1070.04 342.176 1060.27 332.648 1058.6 302.411C1058.56 301.815 1058.77 301.234 1059.18 300.799C1059.59 300.363 1060.15 300.116 1060.75 300.116C1071.1 300.116 1113.73 300.116 1113.76 300.116C1118.25 300.116 1119.18 296.224 1119.18 288.57C1119.18 261.353 1108.34 238.609 1075 238.609C1041.65 238.609 1025.15 263.938 1025.15 296.471C1025.15 335.597 1050.48 354.448 1081.24 354.448C1094.98 354.448 1106.59 350.628 1117.06 342.263C1117.88 341.595 1118.1 340.418 1117.56 339.489C1116.81 338.211 1115.75 336.41 1114.95 335.074V335.059ZM1074.98 249.211C1083.58 249.211 1088.65 259.349 1088.65 277.372C1088.65 285.97 1087.24 287.974 1076.62 287.974H1058.24C1058.95 256.981 1067.55 249.211 1074.97 249.211" fill="#0C332A"/>
<path d="M1012.34 240.962H1001.8C991.893 240.962 985.532 243.562 981.654 250.039C976.934 243.329 967.988 238.609 957.139 238.609C928.861 238.609 907.773 260.409 907.773 301.176C907.773 341.943 928.164 354.433 949.02 354.433C959.622 354.433 965.867 351.253 971.88 345.356C972.446 344.819 973.013 344.253 973.579 343.657C974.174 343.018 975.118 342.8 975.932 343.12C976.745 343.439 977.297 344.238 977.297 345.124C977.297 347.172 977.297 348.886 977.297 348.886C977.297 376.582 966.099 390.481 948.541 390.481C936.617 390.481 927.554 383.045 924.577 368.173C924.374 367.171 923.502 366.459 922.486 366.459C921.353 366.444 919.886 366.444 918.753 366.444C917.722 366.444 916.822 367.185 916.633 368.202C915.587 373.793 912.363 391.076 911.361 396.421C911.186 397.365 911.651 398.323 912.523 398.744C922.268 403.435 936.167 406.848 947.829 406.848C988.596 406.848 1008.51 382.464 1008.51 337.804V277.735C1008.51 277.735 1008.51 277.706 1008.51 277.692C1008.74 265.231 1010.51 253.583 1013.1 246.873C1013.1 246.859 1013.11 246.83 1013.13 246.815C1013.21 246.597 1013.77 245.276 1014.33 243.939C1014.61 243.271 1014.54 242.516 1014.14 241.906C1013.75 241.311 1013.07 240.948 1012.34 240.948V240.962ZM977.181 298.301C977.181 298.301 977.181 298.344 977.181 298.373C976.237 326.156 970.224 338.632 957.153 338.632C947.843 338.632 941.018 330.034 941.018 300.697C941.018 267.584 949.383 252.857 961.161 252.857C968.757 252.857 974.116 256.125 976.992 262.544C977.108 262.82 977.181 263.125 977.181 263.415C977.181 267.366 977.181 297.095 977.181 298.301Z" fill="#0C332A"/>
<path d="M1121.18 232.74V235.471H1123.28C1123.81 235.471 1124.2 235.354 1124.49 235.107C1124.76 234.861 1124.91 234.541 1124.91 234.134C1124.91 233.728 1124.78 233.394 1124.52 233.132C1124.26 232.871 1123.86 232.755 1123.36 232.755H1121.19L1121.18 232.74ZM1119.19 240.946V231.143H1123.69C1124.63 231.143 1125.39 231.389 1125.97 231.898C1126.55 232.406 1126.84 233.06 1126.84 233.873C1126.84 235.122 1126.25 235.921 1125.04 236.24V236.284C1125.51 236.415 1125.85 236.632 1126.09 236.937C1126.32 237.228 1126.46 237.678 1126.54 238.259C1126.55 238.477 1126.58 238.738 1126.59 239.029C1126.62 239.319 1126.64 239.566 1126.65 239.74C1126.65 239.915 1126.68 240.089 1126.71 240.263C1126.74 240.438 1126.77 240.568 1126.81 240.67C1126.86 240.772 1126.9 240.83 1126.97 240.859V240.96H1125.07C1125.07 240.96 1125 240.902 1124.97 240.859C1124.94 240.815 1124.92 240.743 1124.9 240.641C1124.88 240.554 1124.87 240.452 1124.85 240.365C1124.84 240.278 1124.82 240.147 1124.81 240.002C1124.79 239.857 1124.78 239.711 1124.78 239.61C1124.78 239.494 1124.76 239.348 1124.75 239.159C1124.75 238.971 1124.72 238.825 1124.72 238.709C1124.63 237.591 1123.99 237.039 1122.8 237.039H1121.21V240.975H1119.22L1119.19 240.946Z" fill="#0C332A"/>
<path fill-rule="evenodd" clip-rule="evenodd" d="M1122.9 228.101C1118.34 228.101 1114.64 231.805 1114.64 236.365C1114.64 240.925 1118.34 244.629 1122.9 244.629C1127.46 244.629 1131.16 240.925 1131.16 236.365C1131.16 231.805 1127.46 228.101 1122.9 228.101ZM1122.9 226.344C1128.43 226.344 1132.92 230.831 1132.92 236.365C1132.92 241.898 1128.43 246.386 1122.9 246.386C1117.37 246.386 1112.88 241.898 1112.88 236.365C1112.88 230.831 1117.37 226.344 1122.9 226.344Z" fill="#0C332A"/>
<path fill-rule="evenodd" clip-rule="evenodd" d="M207.538 86.4574L180.35 106.95C178.811 108.112 176.676 108.083 175.166 106.877L148.559 85.6441C141.007 79.6169 136.649 70.4236 136.78 60.7655L137.259 26.0982C137.274 24.6168 138.073 23.2516 139.365 22.4964C151.58 19.766 162.835 13.8259 171.985 5.28614L177.039 0.566031C178.39 -0.218233 180.074 -0.203709 181.396 0.624124L186.32 5.47494C195.222 14.2616 206.318 20.5067 218.46 23.5711C219.723 24.3554 220.479 25.7351 220.464 27.231L219.985 61.8983C219.854 71.5709 215.265 80.6335 207.538 86.4574Z" fill="#14D366"/>
<path fill-rule="evenodd" clip-rule="evenodd" d="M264.876 133.62L231.167 128.9C229.25 128.639 227.768 127.099 227.551 125.182L223.746 91.3573C222.671 81.7429 226.084 72.1865 233.011 65.4331L257.861 41.2516C258.921 40.2205 260.461 39.8138 261.898 40.1914C272.472 46.9012 284.628 50.6628 297.132 51.084L304.045 51.3163C305.556 51.723 306.732 52.9139 307.081 54.4389L307.124 61.352C307.212 73.8712 310.639 86.1289 317.058 96.8762C317.392 98.3286 316.957 99.839 315.896 100.885L291.047 125.066C284.119 131.805 274.461 134.971 264.876 133.62Z" fill="#14D366"/>
<path fill-rule="evenodd" clip-rule="evenodd" d="M272.083 207.537L251.59 180.349C250.428 178.81 250.457 176.675 251.663 175.165L272.896 148.558C278.923 141.006 288.116 136.649 297.775 136.779L332.442 137.259C333.923 137.273 335.288 138.072 336.044 139.364C338.774 151.579 344.714 162.834 353.254 171.984L357.974 177.038C358.758 178.389 358.744 180.073 357.916 181.395L353.065 186.319C344.278 195.221 338.033 206.317 334.969 218.459C334.185 219.722 332.805 220.478 331.309 220.463L296.642 219.984C286.969 219.853 277.907 215.264 272.083 207.537Z" fill="#14D366"/>
<path fill-rule="evenodd" clip-rule="evenodd" d="M224.912 264.872L229.632 231.163C229.893 229.246 231.433 227.765 233.35 227.547L267.175 223.742C276.789 222.667 286.346 226.08 293.099 233.008L317.28 257.857C318.312 258.917 318.718 260.457 318.341 261.895C311.631 272.468 307.869 284.624 307.448 297.128L307.216 304.042C306.809 305.552 305.618 306.728 304.093 307.077L297.18 307.12C284.661 307.208 272.403 310.635 261.656 317.054C260.203 317.388 258.693 316.953 257.647 315.893L233.466 291.043C226.727 284.115 223.561 274.457 224.912 264.872Z" fill="#14D366"/>
<path fill-rule="evenodd" clip-rule="evenodd" d="M150.996 272.079L178.184 251.586C179.724 250.424 181.859 250.453 183.369 251.659L209.976 272.892C217.528 278.919 221.885 288.113 221.754 297.771L221.275 332.438C221.261 333.919 220.462 335.285 219.169 336.04C206.955 338.77 195.699 344.71 186.55 353.25L181.495 357.97C180.145 358.754 178.46 358.74 177.138 357.912L172.215 353.061C163.312 344.275 152.216 338.029 140.075 334.965C138.811 334.181 138.056 332.801 138.071 331.305L138.55 296.638C138.681 286.965 143.27 277.903 150.996 272.079Z" fill="#14D366"/>
<path fill-rule="evenodd" clip-rule="evenodd" d="M93.6561 224.9L127.365 229.62C129.282 229.881 130.763 231.421 130.981 233.338L134.786 267.163C135.861 276.777 132.448 286.334 125.52 293.087L100.671 317.269C99.6107 318.3 98.0712 318.707 96.6334 318.329C86.0604 311.619 73.9043 307.858 61.3996 307.436L54.4865 307.204C52.9761 306.797 51.7997 305.606 51.4511 304.081L51.4075 297.168C51.3204 284.649 47.8929 272.391 41.4735 261.644C41.1395 260.192 41.5752 258.681 42.6354 257.636L67.4849 233.454C74.4126 226.715 84.0707 223.549 93.6561 224.9Z" fill="#14D366"/>
<path fill-rule="evenodd" clip-rule="evenodd" d="M86.4594 150.999L106.952 178.187C108.114 179.727 108.085 181.861 106.879 183.372L85.6461 209.979C79.6189 217.531 70.4255 221.888 60.7675 221.757L26.1001 221.278C24.6187 221.263 23.2535 220.465 22.4983 219.172C19.7679 206.958 13.8278 195.702 5.28809 186.553L0.567984 181.498C-0.21628 180.148 -0.201756 178.463 0.626078 177.141L5.47689 172.218C14.2636 163.315 20.5086 152.219 23.573 140.078C24.3573 138.814 25.737 138.059 27.2329 138.073L61.9003 138.553C71.5729 138.683 80.6355 143.273 86.4594 150.999Z" fill="#14D366"/>
<path fill-rule="evenodd" clip-rule="evenodd" d="M133.634 93.6542L128.914 127.363C128.653 129.28 127.113 130.761 125.196 130.979L91.371 134.784C81.7565 135.859 72.2001 132.446 65.4468 125.519L41.2653 100.669C40.2341 99.6088 39.8275 98.0693 40.2051 96.6315C46.9149 86.0584 50.6765 73.9023 51.0976 61.3977L51.33 54.4845C51.7367 52.9741 52.9276 51.7977 54.4525 51.4492L61.3657 51.4056C73.8848 51.3184 86.1426 47.8909 96.8899 41.4716C98.3422 41.1375 99.8527 41.5732 100.898 42.6335L125.08 67.483C131.819 74.4107 134.985 84.0687 133.634 93.6542Z" fill="#14D366"/>
</g>
<defs>
<clipPath id="clip0_316_232">
<rect width="1132.93" height="406.873" fill="white"/>
</clipPath>
</defs>
</svg>
