<svg width="359" height="359" viewBox="0 0 359 359" fill="none" xmlns="http://www.w3.org/2000/svg">
<path fill-rule="evenodd" clip-rule="evenodd" d="M207.546 86.4672L180.358 106.96C178.819 108.122 176.684 108.093 175.173 106.887L148.566 85.6539C141.014 79.6267 136.657 70.4333 136.788 60.7753L137.267 26.1079C137.282 24.6265 138.081 23.2613 139.373 22.5061C151.587 19.7757 162.843 13.8357 171.993 5.2959L177.047 0.575796C178.398 -0.208467 180.082 -0.193944 181.404 0.63389L186.327 5.48471C195.23 14.2714 206.326 20.5164 218.468 23.5809C219.731 24.3651 220.486 25.7449 220.472 27.2408L219.993 61.9081C219.862 71.5807 215.272 80.6433 207.546 86.4672Z" fill="#14D366"/>
<path fill-rule="evenodd" clip-rule="evenodd" d="M264.884 133.63L231.175 128.91C229.258 128.649 227.776 127.109 227.558 125.192L223.753 91.3671C222.679 81.7526 226.092 72.1962 233.019 65.4428L257.869 41.2614C258.929 40.2302 260.468 39.8236 261.906 40.2012C272.479 46.911 284.635 50.6725 297.14 51.0937L304.053 51.3261C305.564 51.7328 306.74 52.9237 307.089 54.4486L307.132 61.3618C307.219 73.8809 310.647 86.1387 317.066 96.886C317.4 98.3383 316.965 99.8488 315.904 100.894L291.055 125.076C284.127 131.815 274.469 134.981 264.884 133.63Z" fill="#14D366"/>
<path fill-rule="evenodd" clip-rule="evenodd" d="M272.09 207.546L251.598 180.358C250.436 178.819 250.465 176.684 251.671 175.173L272.904 148.566C278.931 141.014 288.124 136.657 297.782 136.788L332.45 137.267C333.931 137.282 335.296 138.081 336.052 139.373C338.782 151.587 344.722 162.843 353.262 171.993L357.982 177.047C358.766 178.398 358.752 180.082 357.924 181.404L353.073 186.327C344.286 195.23 338.041 206.326 334.977 218.468C334.193 219.731 332.813 220.486 331.317 220.472L296.65 219.993C286.977 219.862 277.914 215.272 272.09 207.546Z" fill="#14D366"/>
<path fill-rule="evenodd" clip-rule="evenodd" d="M224.919 264.881L229.64 231.172C229.901 229.255 231.44 227.773 233.358 227.556L267.183 223.75C276.797 222.676 286.353 226.089 293.107 233.016L317.288 257.866C318.319 258.926 318.726 260.466 318.348 261.903C311.639 272.476 307.877 284.632 307.456 297.137L307.224 304.05C306.817 305.561 305.626 306.737 304.101 307.086L297.188 307.129C284.669 307.216 272.411 310.644 261.664 317.063C260.211 317.397 258.701 316.962 257.655 315.901L233.474 291.052C226.735 284.124 223.569 274.466 224.919 264.881Z" fill="#14D366"/>
<path fill-rule="evenodd" clip-rule="evenodd" d="M151.004 272.089L178.192 251.596C179.731 250.434 181.866 250.463 183.377 251.669L209.984 272.902C217.536 278.929 221.893 288.122 221.762 297.78L221.283 332.448C221.268 333.929 220.47 335.294 219.177 336.05C206.963 338.78 195.707 344.72 186.557 353.26L181.503 357.98C180.153 358.764 178.468 358.75 177.146 357.922L172.223 353.071C163.32 344.284 152.224 338.039 140.083 334.975C138.819 334.191 138.064 332.811 138.078 331.315L138.558 296.648C138.688 286.975 143.278 277.912 151.004 272.089Z" fill="#14D366"/>
<path fill-rule="evenodd" clip-rule="evenodd" d="M93.6639 224.909L127.373 229.629C129.29 229.89 130.771 231.43 130.989 233.347L134.794 267.172C135.869 276.786 132.456 286.343 125.528 293.096L100.679 317.278C99.6185 318.309 98.079 318.715 96.6412 318.338C86.0682 311.628 73.9121 307.866 61.4074 307.445L54.4943 307.213C52.9839 306.806 51.8075 305.615 51.4589 304.09L51.4154 297.177C51.3282 284.658 47.9007 272.4 41.4813 261.653C41.1473 260.201 41.583 258.69 42.6432 257.644L67.4928 233.463C74.4204 226.724 84.0785 223.558 93.6639 224.909Z" fill="#14D366"/>
<path fill-rule="evenodd" clip-rule="evenodd" d="M86.4672 151.009L106.96 178.197C108.122 179.736 108.093 181.871 106.887 183.382L85.6539 209.989C79.6267 217.541 70.4333 221.898 60.7753 221.767L26.1079 221.288C24.6265 221.273 23.2613 220.474 22.5061 219.182C19.7757 206.968 13.8357 195.712 5.2959 186.562L0.575796 181.508C-0.208467 180.158 -0.193944 178.473 0.63389 177.151L5.48471 172.228C14.2714 163.325 20.5164 152.229 23.5809 140.087C24.3651 138.824 25.7449 138.069 27.2408 138.083L61.9081 138.562C71.5807 138.693 80.6433 143.283 86.4672 151.009Z" fill="#14D366"/>
<path fill-rule="evenodd" clip-rule="evenodd" d="M133.642 93.6629L128.922 127.372C128.66 129.289 127.121 130.77 125.204 130.988L91.3788 134.793C81.7643 135.868 72.2079 132.455 65.4546 125.527L41.2731 100.678C40.2419 99.6175 39.8353 98.0781 40.2129 96.6402C46.9227 86.0672 50.6843 73.9111 51.1054 61.4065L51.3378 54.4933C51.7445 52.9829 52.9354 51.8065 54.4603 51.4579L61.3735 51.4144C73.8927 51.3272 86.1504 47.8997 96.8977 41.4804C98.3501 41.1463 99.8605 41.582 100.906 42.6422L125.088 67.4918C131.826 74.4194 134.993 84.0775 133.642 93.6629Z" fill="#14D366"/>
</svg>
